<mxfile host="app.diagrams.net" agent="Mozilla/5.0 (Windows NT 10.0; Win64; x64; rv:132.0) Gecko/20100101 Firefox/132.0" version="24.9.0">
  <diagram name="Page-1" id="xJAmNHwFx4mG_RqCS-i0">
    <mxGraphModel dx="1615" dy="886" grid="1" gridSize="10" guides="1" tooltips="1" connect="1" arrows="1" fold="1" page="1" pageScale="1" pageWidth="850" pageHeight="1100" math="0" shadow="0">
      <root>
        <mxCell id="0" />
        <mxCell id="1" parent="0" />
        <mxCell id="I0n1ZHQrFACI-H7kgFJJ-27" value="" style="rounded=0;whiteSpace=wrap;html=1;fillColor=#647687;fontColor=#ffffff;strokeColor=#314354;" vertex="1" parent="1">
          <mxGeometry x="20" y="50" width="920" height="610" as="geometry" />
        </mxCell>
        <mxCell id="I0n1ZHQrFACI-H7kgFJJ-28" value="&lt;b style=&quot;font-size: 14px;&quot;&gt;Classification&lt;/b&gt;" style="ellipse;whiteSpace=wrap;html=1;fillColor=#cce5ff;strokeColor=#36393d;fontSize=14;" vertex="1" parent="1">
          <mxGeometry x="750" y="70" width="120" height="80" as="geometry" />
        </mxCell>
        <mxCell id="I0n1ZHQrFACI-H7kgFJJ-29" value="&lt;b style=&quot;font-size: 14px;&quot;&gt;Path Determination&lt;/b&gt;" style="ellipse;whiteSpace=wrap;html=1;fillColor=#cce5ff;strokeColor=#36393d;fontSize=14;" vertex="1" parent="1">
          <mxGeometry x="750" y="275" width="120" height="80" as="geometry" />
        </mxCell>
        <mxCell id="I0n1ZHQrFACI-H7kgFJJ-30" style="edgeStyle=orthogonalEdgeStyle;rounded=0;orthogonalLoop=1;jettySize=auto;html=1;exitX=0;exitY=0.5;exitDx=0;exitDy=0;entryX=0.342;entryY=0.975;entryDx=0;entryDy=0;entryPerimeter=0;" edge="1" parent="1" source="I0n1ZHQrFACI-H7kgFJJ-31" target="I0n1ZHQrFACI-H7kgFJJ-31">
          <mxGeometry relative="1" as="geometry">
            <mxPoint x="790" y="660" as="targetPoint" />
            <Array as="points">
              <mxPoint x="700" y="540" />
              <mxPoint x="700" y="610" />
              <mxPoint x="791" y="610" />
            </Array>
          </mxGeometry>
        </mxCell>
        <mxCell id="I0n1ZHQrFACI-H7kgFJJ-31" value="&lt;div&gt;&lt;b style=&quot;font-size: 14px;&quot;&gt;Interception&lt;/b&gt;&lt;/div&gt;&lt;div&gt;&lt;b style=&quot;font-size: 14px;&quot;&gt;&amp;amp; Alert&lt;/b&gt;&lt;/div&gt;" style="ellipse;whiteSpace=wrap;html=1;fillColor=#cce5ff;strokeColor=#36393d;fontSize=14;" vertex="1" parent="1">
          <mxGeometry x="750" y="500" width="120" height="80" as="geometry" />
        </mxCell>
        <mxCell id="I0n1ZHQrFACI-H7kgFJJ-32" value="" style="endArrow=classic;html=1;rounded=0;entryX=0;entryY=0.5;entryDx=0;entryDy=0;exitX=1;exitY=0.5;exitDx=0;exitDy=0;" edge="1" parent="1" source="I0n1ZHQrFACI-H7kgFJJ-46" target="I0n1ZHQrFACI-H7kgFJJ-28">
          <mxGeometry width="50" height="50" relative="1" as="geometry">
            <mxPoint x="320" y="160" as="sourcePoint" />
            <mxPoint x="375" y="105" as="targetPoint" />
          </mxGeometry>
        </mxCell>
        <mxCell id="I0n1ZHQrFACI-H7kgFJJ-33" value="&lt;b style=&quot;font-size: 14px;&quot;&gt;Heat Detection&lt;/b&gt;" style="ellipse;whiteSpace=wrap;html=1;fillColor=#cce5ff;strokeColor=#36393d;fontSize=14;" vertex="1" parent="1">
          <mxGeometry x="100" y="375" width="120" height="80" as="geometry" />
        </mxCell>
        <mxCell id="I0n1ZHQrFACI-H7kgFJJ-34" value="" style="endArrow=classic;html=1;rounded=0;exitX=0.5;exitY=1;exitDx=0;exitDy=0;" edge="1" parent="1" source="I0n1ZHQrFACI-H7kgFJJ-29" target="I0n1ZHQrFACI-H7kgFJJ-31">
          <mxGeometry width="50" height="50" relative="1" as="geometry">
            <mxPoint x="350" y="350" as="sourcePoint" />
            <mxPoint x="570" y="460" as="targetPoint" />
          </mxGeometry>
        </mxCell>
        <mxCell id="I0n1ZHQrFACI-H7kgFJJ-35" value="" style="endArrow=classic;html=1;rounded=0;entryX=0.5;entryY=0;entryDx=0;entryDy=0;exitX=0.5;exitY=1;exitDx=0;exitDy=0;" edge="1" parent="1" source="I0n1ZHQrFACI-H7kgFJJ-28" target="I0n1ZHQrFACI-H7kgFJJ-29">
          <mxGeometry width="50" height="50" relative="1" as="geometry">
            <mxPoint x="350" y="350" as="sourcePoint" />
            <mxPoint x="400" y="300" as="targetPoint" />
          </mxGeometry>
        </mxCell>
        <mxCell id="I0n1ZHQrFACI-H7kgFJJ-36" value="Object Detected" style="text;html=1;align=center;verticalAlign=middle;whiteSpace=wrap;rounded=0;strokeWidth=1;fontSize=14;" vertex="1" parent="1">
          <mxGeometry x="440" y="70" width="60" height="30" as="geometry" />
        </mxCell>
        <mxCell id="I0n1ZHQrFACI-H7kgFJJ-37" value="Ally Object" style="text;html=1;align=center;verticalAlign=middle;whiteSpace=wrap;rounded=0;strokeWidth=1;fontSize=14;" vertex="1" parent="1">
          <mxGeometry x="550" y="260" width="70" height="30" as="geometry" />
        </mxCell>
        <mxCell id="I0n1ZHQrFACI-H7kgFJJ-38" value="Enemy Object" style="text;html=1;align=center;verticalAlign=middle;whiteSpace=wrap;rounded=0;strokeWidth=1;fontSize=14;" vertex="1" parent="1">
          <mxGeometry x="820" y="200" width="60" height="30" as="geometry" />
        </mxCell>
        <mxCell id="I0n1ZHQrFACI-H7kgFJJ-39" value="&lt;div style=&quot;font-size: 14px;&quot;&gt;Interception Needed&lt;/div&gt;" style="text;html=1;align=center;verticalAlign=middle;whiteSpace=wrap;rounded=0;strokeWidth=1;fontSize=14;" vertex="1" parent="1">
          <mxGeometry x="820" y="420" width="60" height="30" as="geometry" />
        </mxCell>
        <mxCell id="I0n1ZHQrFACI-H7kgFJJ-40" value="Interception Failed" style="text;html=1;align=center;verticalAlign=middle;whiteSpace=wrap;rounded=0;strokeWidth=1;fontSize=14;" vertex="1" parent="1">
          <mxGeometry x="720" y="620" width="60" height="30" as="geometry" />
        </mxCell>
        <mxCell id="I0n1ZHQrFACI-H7kgFJJ-41" value="Threat Neutralized" style="text;html=1;align=center;verticalAlign=middle;whiteSpace=wrap;rounded=0;strokeWidth=1;fontSize=14;" vertex="1" parent="1">
          <mxGeometry x="400" y="480" width="60" height="30" as="geometry" />
        </mxCell>
        <mxCell id="I0n1ZHQrFACI-H7kgFJJ-42" value="" style="endArrow=classic;html=1;rounded=0;exitX=0.5;exitY=1;exitDx=0;exitDy=0;entryX=0.981;entryY=0.371;entryDx=0;entryDy=0;entryPerimeter=0;" edge="1" parent="1" source="I0n1ZHQrFACI-H7kgFJJ-28" target="I0n1ZHQrFACI-H7kgFJJ-33">
          <mxGeometry width="50" height="50" relative="1" as="geometry">
            <mxPoint x="350" y="350" as="sourcePoint" />
            <mxPoint x="400" y="300" as="targetPoint" />
          </mxGeometry>
        </mxCell>
        <mxCell id="I0n1ZHQrFACI-H7kgFJJ-43" value="" style="endArrow=classic;html=1;rounded=0;exitX=0;exitY=0;exitDx=0;exitDy=0;entryX=1;entryY=1;entryDx=0;entryDy=0;" edge="1" parent="1" source="I0n1ZHQrFACI-H7kgFJJ-31" target="I0n1ZHQrFACI-H7kgFJJ-33">
          <mxGeometry width="50" height="50" relative="1" as="geometry">
            <mxPoint x="350" y="350" as="sourcePoint" />
            <mxPoint x="400" y="300" as="targetPoint" />
          </mxGeometry>
        </mxCell>
        <mxCell id="I0n1ZHQrFACI-H7kgFJJ-44" value="" style="endArrow=classic;html=1;rounded=0;exitX=0;exitY=0.5;exitDx=0;exitDy=0;entryX=1;entryY=0.5;entryDx=0;entryDy=0;" edge="1" parent="1" source="I0n1ZHQrFACI-H7kgFJJ-29" target="I0n1ZHQrFACI-H7kgFJJ-33">
          <mxGeometry width="50" height="50" relative="1" as="geometry">
            <mxPoint x="350" y="350" as="sourcePoint" />
            <mxPoint x="400" y="300" as="targetPoint" />
          </mxGeometry>
        </mxCell>
        <mxCell id="I0n1ZHQrFACI-H7kgFJJ-45" value="No Interception Needed" style="text;html=1;align=center;verticalAlign=middle;whiteSpace=wrap;rounded=0;strokeWidth=1;fontSize=14;rotation=0;" vertex="1" parent="1">
          <mxGeometry x="440" y="370" width="175" height="30" as="geometry" />
        </mxCell>
        <mxCell id="I0n1ZHQrFACI-H7kgFJJ-46" value="&lt;b style=&quot;font-size: 14px;&quot;&gt;GPS Detection&lt;/b&gt;" style="ellipse;whiteSpace=wrap;html=1;fillColor=#cce5ff;strokeColor=#36393d;fontSize=14;" vertex="1" parent="1">
          <mxGeometry x="100" y="70" width="120" height="80" as="geometry" />
        </mxCell>
        <mxCell id="I0n1ZHQrFACI-H7kgFJJ-47" value="" style="endArrow=classic;html=1;rounded=0;exitX=0.625;exitY=0.013;exitDx=0;exitDy=0;exitPerimeter=0;entryX=0.697;entryY=0.917;entryDx=0;entryDy=0;entryPerimeter=0;" edge="1" parent="1" source="I0n1ZHQrFACI-H7kgFJJ-33" target="I0n1ZHQrFACI-H7kgFJJ-46">
          <mxGeometry width="50" height="50" relative="1" as="geometry">
            <mxPoint x="350" y="450" as="sourcePoint" />
            <mxPoint x="400" y="400" as="targetPoint" />
            <Array as="points" />
          </mxGeometry>
        </mxCell>
        <mxCell id="I0n1ZHQrFACI-H7kgFJJ-48" value="" style="endArrow=classic;html=1;rounded=0;exitX=0;exitY=1;exitDx=0;exitDy=0;entryX=0;entryY=0;entryDx=0;entryDy=0;" edge="1" parent="1" source="I0n1ZHQrFACI-H7kgFJJ-46" target="I0n1ZHQrFACI-H7kgFJJ-33">
          <mxGeometry width="50" height="50" relative="1" as="geometry">
            <mxPoint x="40" y="230" as="sourcePoint" />
            <mxPoint x="90" y="180" as="targetPoint" />
          </mxGeometry>
        </mxCell>
        <mxCell id="I0n1ZHQrFACI-H7kgFJJ-49" value="No Detection" style="text;html=1;align=center;verticalAlign=middle;resizable=0;points=[];autosize=1;strokeColor=none;fillColor=none;" vertex="1" parent="1">
          <mxGeometry x="180" y="275" width="90" height="30" as="geometry" />
        </mxCell>
        <mxCell id="I0n1ZHQrFACI-H7kgFJJ-50" value="No Detection" style="text;html=1;align=center;verticalAlign=middle;resizable=0;points=[];autosize=1;strokeColor=none;fillColor=none;" vertex="1" parent="1">
          <mxGeometry x="30" y="260" width="90" height="30" as="geometry" />
        </mxCell>
        <mxCell id="I0n1ZHQrFACI-H7kgFJJ-51" value="" style="endArrow=classic;html=1;rounded=0;exitX=0.764;exitY=0.113;exitDx=0;exitDy=0;exitPerimeter=0;" edge="1" parent="1" source="I0n1ZHQrFACI-H7kgFJJ-33" target="I0n1ZHQrFACI-H7kgFJJ-28">
          <mxGeometry width="50" height="50" relative="1" as="geometry">
            <mxPoint x="250" y="325" as="sourcePoint" />
            <mxPoint x="300" y="275" as="targetPoint" />
          </mxGeometry>
        </mxCell>
        <mxCell id="I0n1ZHQrFACI-H7kgFJJ-52" value="Object Detected" style="text;html=1;align=center;verticalAlign=middle;whiteSpace=wrap;rounded=0;strokeWidth=1;fontSize=14;" vertex="1" parent="1">
          <mxGeometry x="480" y="200" width="60" height="30" as="geometry" />
        </mxCell>
      </root>
    </mxGraphModel>
  </diagram>
</mxfile>
